<svg width="24" height="24" viewBox="0 0 24 24" fill="none" xmlns="http://www.w3.org/2000/svg">
<path d="M11.4492 19C10.8969 19 10.4492 18.5523 10.4492 18V17C10.4492 16.4477 10.8969 16 11.4492 16H12.4492C13.0015 16 13.4492 16.4477 13.4492 17V18C13.4492 18.5523 13.0015 19 12.4492 19H11.4492Z" fill="#CF0048"/>
<path d="M10.75 6C10.75 5.44772 11.1977 5 11.75 5H12.25C12.8023 5 13.25 5.44772 13.25 6V13C13.25 13.5523 12.8023 14 12.25 14H11.75C11.1977 14 10.75 13.5523 10.75 13V6Z" fill="#CF0048"/>
<rect x="1.25" y="1.25" width="21.5" height="21.5" rx="10.75" stroke="#CF0048" stroke-width="2.5"/>
</svg>
